PathFileType	4	(X/Y/Z)	example_trial.trc
DataRate	CameraRate	NumFrames	NumMarkers	Units	OrigDataRate	OrigDataStartFrame	OrigNumFrames
100	100	10	20	mm	100	581	2322
Frame#	Time	Can1			Can2			Can3			ElbowLE			ElbowME			Elbow3			Elbow4			Elbow5			Elbow6			ForearmRS			ForearmUL			Forearm3			Forearm4			HandRS			HandUL			Hand3			Hand4			Hand5			Hand6			Hand7			
		X1	Y1	Z1	X2	Y2	Z2	X3	Y3	Z3	X4	Y4	Z4	X5	Y5	Z5	X6	Y6	Z6	X7	Y7	Z7	X8	Y8	Z8	X9	Y9	Z9	X10	Y10	Z10	X11	Y11	Z11	X12	Y12	Z12	X13	Y13	Z13	X14	Y14	Z14	X15	Y15	Z15	X16	Y16	Z16	X17	Y17	Z17	X18	Y18	Z18	X19	Y19	Z19	X20	Y20	Z20	

581	5.8	495.0922760237894	26.873604028231497	32.916267249453234	476.8538716015089	42.93813043220904	40.06918422006478	481.7573878542451	-5.372250558614709	36.48387930013735	-0.12360567462464012	-69.59108338872461	0.2923836171077391	-0.5326072938794768	90.58627253617966	0.7679139291530019	99.33045079306079	-34.40428305308778	-29.60351400443792	96.95459658603704	33.01509172479498	-31.5499189781906	98.81771009899086	34.49176239732125	25.057454147288198	100.5364363597372	-33.085812239134015	26.157561351501396	193.57497429057713	0.8321698651049889	41.80554650613794	191.06701257907622	-0.6408666802295997	-55.77803036499478	122.07812590884492	-34.30962882789189	-30.00976415167109	120.13215648390873	32.92643065149494	-31.90819091793616	329.6256300992379	-7.0996026185402705	21.53915405897058	325.5819660394546	-6.421504533763425	-48.01196143435884	400.7800390361893	-58.51144702785605	-43.475631353346465	435.969764029444	-60.16119298038365	-47.72738515481211	425.10097445731276	-60.950452850530304	-12.853734182264589	439.30249076897087	-61.19729695193864	10.139529297361833	405.78615734462795	-56.87468104115332	9.611728402604946	
582	5.81	495.0172636041446	27.235972696940994	32.86532234482355	476.7399091619246	43.274730404807826	40.01320738140396	481.7342751910288	-5.036291534210669	36.4296425017156	-0.0563567269744647	-69.13472203845421	-0.00012437436501389065	-0.8933136872174874	90.22852131935576	-0.6236800555615152	99.30655690918904	-34.40111712998117	-29.610287705568165	96.92815105257071	32.9981494247368	-31.571542429335253	98.79259557322965	34.48655626030007	25.045497234657397	100.5194135835093	-33.0866450552519	26.14248812279498	193.55654669398433	0.8186832167041427	41.78143125345454	191.43531986044619	0.027645314491188344	-55.84754229090746	122.05327927223777	-34.32007006614324	-30.02164460543334	120.10873164862865	32.90613043613984	-31.92556222161169	329.61815803059733	-7.050800405352323	21.520165841570595	325.5132631820207	-6.415197036975762	-48.05260530050984	400.69850523967625	-58.54019270521678	-43.344241506514074	436.0423761816059	-59.92390997862644	-47.76767444931842	425.089732862882	-61.06535852238963	-12.769277902247048	439.3070082467015	-61.309267752307676	10.51427729283003	405.6963146200123	-56.36464943180743	9.436236083649742	
583	5.82	494.94077174886195	27.57687577323899	32.87558255401619	476.64897259038185	43.59848373672854	40.013215264191956	481.721977651421	-4.717365640443649	36.45191990328919	-0.05351727897477776	-69.13319321166308	-0.010524605894952188	-0.31257080158297335	90.57065370975103	0.4885597185570839	99.30792072469785	-34.40007420446585	-29.62656965116003	96.91844445844487	33.024922286486365	-31.560372262047157	98.7949950765915	34.485584831375995	25.030864259264643	100.52165544296835	-33.08642582953642	26.134221585510975	193.55197965777558	0.8268091572000102	41.76745200102816	191.44132457763425	0.09454374628077566	-55.84309235727546	122.05010341522834	-34.317734453611955	-30.03641456712782	120.10173695162032	32.9065010137524	-31.936344793793648	329.6217920752682	-7.005661060774667	21.479747289665106	324.7418443634214	-6.526350686874551	-48.337270912123145	400.95354030200764	-58.20177431003427	-43.505084008041564	436.1463843374731	-59.69004813122227	-47.74935271257614	425.05089793913345	-60.89513737068022	-12.64903746544487	439.71044378102454	-61.072991541724925	10.679443079428765	405.73774046541445	-56.599882688147346	9.719051314355632	
584	5.83	494.88423435148997	27.90707177103534	32.9491589760432	476.5723873188741	43.89065768887042	40.0893722159859	481.72889768561106	-4.412520706182139	36.51871869800234	-0.038615997740343744	-69.13761789731322	-0.005172168485349737	-0.0964856754655452	90.70520666670406	0.8890153057979242	99.31964594156986	-34.38917371278349	-29.628001150766046	96.93804029677091	33.004228687979314	-31.58596176439828	98.80225977287908	34.49278584992347	25.035018421323585	100.53440335992946	-33.07694089571909	26.131013693823306	193.56967880658985	0.8385688384695218	41.77240878731827	191.4507918283225	-0.03495176527781574	-55.8540032078491	122.06070912768902	-34.301709806003835	-30.036871267373357	120.1179070663957	32.93076399824784	-31.937849852250956	329.63844992264836	-6.913136535262115	21.519053628250976	325.5232235572437	-6.2288108952889445	-48.117188528801314	401.04671435970766	-58.037886608998704	-43.4455301075823	436.258778823816	-59.44825527731699	-47.70368781370342	425.1743504116278	-60.624446780268485	-12.59979185910824	439.6888875878682	-60.769611210361816	10.613373802558911	405.84050663820096	-56.39385710726023	9.739816768612982	
585	5.84	494.8414543158993	28.24731639969766	33.092021036257	476.4939779446696	44.2030854034161	40.203021010082736	481.72608382455985	-4.106765287631461	36.638160328212095	0.04632266489638681	-69.48329890137505	0.154701846605089	-0.3026601618395288	90.54471253586689	0.36356467082647426	99.34389436892961	-34.39004101716935	-29.623780604398462	96.95884852130638	33.04340359708202	-31.5498430692257	98.82534681327166	34.505161205641535	25.037770734794094	100.55474257257761	-33.068201975514306	26.13871472784347	193.58291581014586	0.8497579393325765	41.77845321349841	191.39183231491938	-0.16990545299288407	-55.8868698303254	122.0827850767001	-34.285017303952785	-30.033458030838545	120.13629808406523	32.953873412573095	-31.906815587356853	329.6615684811414	-6.833492678268385	21.53688906259653	325.99230432481437	-6.501134979777067	-47.818321982685404	401.2090498928308	-57.78055050962625	-43.42693575800228	436.3695884907078	-59.19695680573389	-47.63107079743696	425.5115386650263	-60.14327242466335	-12.750039895581995	439.8206214127256	-60.57945274784407	10.897875236994857	405.9324639358542	-56.19286526787414	9.830994445460544	
586	5.85	494.7856972909394	28.598539805144256	33.231108869570065	476.4110565822594	44.53983837873331	40.338648477075765	481.71669887073676	-3.7435487218514822	36.76175354246433	-0.07927848320282127	-69.57944671078637	0.28685709540285875	-0.8238229644582855	90.24184034639183	-0.6500646527610119	99.38015158029974	-34.380681765658125	-29.606969352703484	96.98850138264378	33.0475368890424	-31.540563723818096	98.8448441179873	34.50826014124687	25.04999382683181	100.57806696635058	-33.07436699081846	26.154446080577067	193.6036146917396	0.8452309917443426	41.80589015675537	191.32155715357837	-0.3896973879574528	-55.835980416684905	122.12470445848092	-34.289863328121854	-30.015405276322184	120.16703314748692	32.940523388268886	-31.90637818291133	329.6847242037122	-6.770421563263135	21.605669664139835	324.4793751403754	-8.506031248967155	-46.82051744006703	401.14068352969963	-57.81235950151108	-43.109989260742026	436.5387237516332	-58.956140356379024	-47.51966347084674	425.4096878904484	-60.16313231278313	-12.444755100108118	440.1740231016696	-59.98114418150449	10.662633502894025	406.0458602101743	-56.02047518099163	9.923991365717402	
587	5.86	494.71247790147277	28.987458780621175	33.32872078642204	476.320075655653	44.884498705545596	40.4518821932352	481.7179553037914	-3.394514120901622	36.86605513575754	-0.03903182888125478	-69.57069141578393	0.27713601649649555	-1.7791522883890263	89.98443013109373	-0.6723779472244024	99.39209939286451	-34.3837940683644	-29.595392712723964	97.00005742903383	33.04056880511891	-31.536706318964768	98.86709863909748	34.50455033614902	25.06542051664342	100.59348126266377	-33.07327094604648	26.16854004292824	193.61549335077245	0.8444822694449758	41.82719988693701	191.63074793395555	0.13456292253174773	-55.79537440120946	122.1449986947785	-34.29522875695262	-30.00073586337724	120.18390853139401	32.941696403300924	-31.89405555634416	329.71106402745573	-6.721999951878054	21.648211862759954	325.7399247474347	-6.62190916012101	-47.852182860155395	401.6988394281543	-57.09752784721399	-43.49219730701789	436.67431824087544	-58.668325894691336	-47.44442915978321	425.50131330861336	-59.91897244734078	-12.326973847607125	439.98893523766435	-59.770621807647515	10.626266325735493	406.1968204149973	-55.37993838167371	9.69812996187029	
588	5.87	494.6448510887695	29.395955504946564	33.367205975032846	476.21108399993693	45.249859110229764	40.48388293799971	481.71481611059323	-3.025561468799868	36.88897164197554	0.009659179190552258	-69.55885213507895	0.24590502324665917	-0.21535482932310668	90.5551224308674	0.3504915815335108	99.39741293177251	-34.39168433705163	-29.581794994832862	97.0145867336798	33.01366372607525	-31.53900212575795	98.8651246190277	34.49761697477782	25.07016126907045	100.59492602447727	-33.07715431644252	26.174886858158857	193.6116113406376	0.8324108063613522	41.841430277449405	191.54079981627729	-0.043278736605380175	-55.7970772179238	122.1567709346216	-34.301571984363825	-29.997752937772972	120.1902548931956	32.920580207071566	-31.897655732406008	329.73242250955377	-6.6541379359053145	21.668828783210735	324.91755868165393	-7.669777703293441	-47.29350608352434	401.72951682356427	-56.90113300551364	-43.36719419449865	436.78463868504315	-58.36884791882758	-47.42840638163474	425.8652783265407	-59.3843722463343	-12.52154701827996	440.0939546729026	-59.45631925541173	10.59910640826515	406.2381324626942	-55.56943159286888	10.005616565561922	
589	5.88	494.5661328920074	29.851185689572226	33.32440074552463	476.09140147040625	45.664586203761075	40.444588556260356	481.710187139437	-2.617358451865819	36.840423107957584	0.014545341752222996	-69.136956295108	-0.002624556543950829	-0.6941169253064938	90.39287157221197	0.08905313943661164	99.37854488419816	-34.40320249745524	-29.58549743925675	96.99867855808854	33.02783815376566	-31.51947682073224	98.84759532364882	34.49060255879964	25.072021599277655	100.5743777829306	-33.09364203890322	26.17362002662417	193.5958745748747	0.8232885920058486	41.84647636219398	191.58503980295404	-0.032105800227526515	-55.810501571797964	122.12888862018343	-34.30837754807006	-29.992881977842735	120.16944473104738	32.92046336675782	-31.886945915853484	329.7411446995657	-6.605435216202828	21.65468915589043	325.2522129152056	-6.535649290598592	-47.98625408254216	401.7976091198304	-56.72069024258868	-43.378803957292455	436.8715228539939	-58.049599041718764	-47.4913567279038	425.65661430843716	-59.736277249421164	-12.227541773045761	440.1743391022269	-59.07874933426487	10.458947903491897	406.42300341602606	-54.921081382800175	9.679155630330268	
590	5.89	494.457328574709	30.334728827661138	33.22465091126001	475.93981561088975	46.10794154356894	40.340712723335386	481.69208487621245	-2.146146700433885	36.73773135361651	-0.014529671249658094	-69.52461580570757	0.1931710323753199	-0.7478131362901133	90.36872949010512	-0.06513262059627889	99.34605911257438	-34.40508492160666	-29.59167976868668	96.96781217314584	32.984281190740056	-31.552575353805448	98.8206545881084	34.483650580510904	25.073758704663547	100.5360732103643	-33.10090380296631	26.17171712646534	193.57386392000706	0.8132247325894877	41.84031118188338	191.29064332577715	-0.40232354600834164	-55.75206064684154	122.08663264851026	-34.32173975815318	-29.991480141696478	120.15204195687545	32.90241648203471	-31.89126903011022	329.72986019042384	-6.544612578327129	21.625438036612955	325.1024259545658	-6.70898763173323	-47.93457983160998	401.8887374515213	-56.15545724967096	-43.4464106658247	436.9846367795447	-57.71111094904907	-47.55595541609296	425.8790417704844	-59.04966701409472	-12.42376701340789	440.517738379711	-59.09396530633323	10.940074205347749	406.4357934109219	-55.09665440473643	9.931513701297735	
